<svg width="36" height="36" viewBox="0 0 36 36" fill="none" xmlns="http://www.w3.org/2000/svg">
<path d="M14.2875 27L30.1875 11.1L28.05 9L14.25 22.7625L7.9125 16.3875L5.775 18.525L14.2875 27ZM12.15 29.1L3.675 20.625C3.375 20.325 3.15625 19.9938 3.01875 19.6313C2.88125 19.2688 2.8125 18.9 2.8125 18.525C2.8125 18.15 2.88125 17.775 3.01875 17.4C3.15625 17.025 3.375 16.6875 3.675 16.3875L5.775 14.2875C6.075 13.9875 6.40625 13.7625 6.76875 13.6125C7.13125 13.4625 7.5125 13.3875 7.9125 13.3875C8.3125 13.3875 8.69375 13.4625 9.05625 13.6125C9.41875 13.7625 9.75 13.9875 10.05 14.2875L14.2875 18.525L25.9125 6.8625C26.1875 6.5625 26.5125 6.34375 26.8875 6.20625C27.2625 6.06875 27.6375 6 28.0125 6C28.3875 6 28.7625 6.06875 29.1375 6.20625C29.5125 6.34375 29.85 6.55 30.15 6.825L32.2875 8.925C32.5875 9.225 32.8125 9.55625 32.9625 9.91875C33.1125 10.2812 33.1875 10.6625 33.1875 11.0625C33.1875 11.4625 33.1188 11.8438 32.9813 12.2063C32.8438 12.5688 32.625 12.9 32.325 13.2L16.425 29.1C16.125 29.4 15.7875 29.625 15.4125 29.775C15.0375 29.925 14.6625 30 14.2875 30C13.9125 30 13.5375 29.925 13.1625 29.775C12.7875 29.625 12.45 29.4 12.15 29.1Z" fill="#01A12E"/>
</svg>
