<svg width="183" height="66" viewBox="0 0 183 66" fill="none" xmlns="http://www.w3.org/2000/svg">
<path d="M4.07166e-05 5.35771C4.07166e-05 8.3167 2.39878 10.7154 5.35777 10.7154C8.31676 10.7154 10.7155 8.3167 10.7155 5.35771C10.7155 2.39872 8.31676 -2.05978e-05 5.35777 -2.05978e-05C2.39878 -2.05978e-05 4.07166e-05 2.39872 4.07166e-05 5.35771ZM172.285 60.107C172.285 63.066 174.683 65.4647 177.642 65.4647C180.601 65.4647 183 63.066 183 60.107C183 57.148 180.601 54.7493 177.642 54.7493C174.683 54.7493 172.285 57.148 172.285 60.107ZM106.115 58.9311L106.587 58.0441L106.115 58.9311ZM7.68497 7.73285C8.17484 7.99331 8.7831 7.80735 9.04357 7.31748C9.30404 6.82761 9.11807 6.21934 8.6282 5.95887L7.68497 7.73285ZM14.2258 8.93517C13.736 8.67471 13.1277 8.86067 12.8672 9.35054C12.6068 9.84041 12.7927 10.4487 13.2826 10.7091L14.2258 8.93517ZM18.8802 13.6854C19.3701 13.9459 19.9784 13.7599 20.2388 13.2701C20.4993 12.7802 20.3133 12.1719 19.8235 11.9115L18.8802 13.6854ZM25.4211 14.8878C24.9312 14.6273 24.323 14.8133 24.0625 15.3031C23.802 15.793 23.988 16.4013 24.4779 16.6618L25.4211 14.8878ZM30.0755 19.6381C30.5654 19.8985 31.1736 19.7126 31.4341 19.2227C31.6946 18.7328 31.5086 18.1245 31.0187 17.8641L30.0755 19.6381ZM36.6164 20.8404C36.1265 20.5799 35.5182 20.7659 35.2578 21.2557C34.9973 21.7456 35.1832 22.3539 35.6731 22.6144L36.6164 20.8404ZM41.2708 25.5907C41.7606 25.8511 42.3689 25.6652 42.6294 25.1753C42.8898 24.6854 42.7039 24.0771 42.214 23.8167L41.2708 25.5907ZM47.8116 26.793C47.3217 26.5325 46.7135 26.7185 46.453 27.2084C46.1925 27.6982 46.3785 28.3065 46.8684 28.567L47.8116 26.793ZM52.466 31.5433C52.9559 31.8037 53.5641 31.6178 53.8246 31.1279C54.0851 30.638 53.8991 30.0298 53.4092 29.7693L52.466 31.5433ZM59.0069 32.7456C58.517 32.4851 57.9087 32.6711 57.6483 33.161C57.3878 33.6508 57.5738 34.2591 58.0636 34.5196L59.0069 32.7456ZM63.6613 37.4959C64.1511 37.7563 64.7594 37.5704 65.0199 37.0805C65.2803 36.5906 65.0944 35.9824 64.6045 35.7219L63.6613 37.4959ZM70.2021 38.6982C69.7123 38.4377 69.104 38.6237 68.8435 39.1136C68.5831 39.6034 68.769 40.2117 69.2589 40.4722L70.2021 38.6982ZM74.8565 43.4485C75.3464 43.7089 75.9547 43.523 76.2151 43.0331C76.4756 42.5432 76.2896 41.935 75.7998 41.6745L74.8565 43.4485ZM81.3974 44.6508C80.9075 44.3903 80.2993 44.5763 80.0388 45.0662C79.7783 45.556 79.9643 46.1643 80.4542 46.4248L81.3974 44.6508ZM86.0518 49.4011C86.5417 49.6615 87.1499 49.4756 87.4104 48.9857C87.6709 48.4958 87.4849 47.8876 86.995 47.6271L86.0518 49.4011ZM92.5927 50.6034C92.1028 50.3429 91.4945 50.5289 91.2341 51.0188C90.9736 51.5086 91.1596 52.1169 91.6494 52.3774L92.5927 50.6034ZM97.2471 55.3537C97.7369 55.6141 98.3452 55.4282 98.6057 54.9383C98.8661 54.4484 98.6802 53.8402 98.1903 53.5797L97.2471 55.3537ZM103.788 56.556C103.298 56.2955 102.69 56.4815 102.429 56.9714C102.169 57.4612 102.355 58.0695 102.845 58.33L103.788 56.556ZM113.615 61.1116C114.17 61.1116 114.62 60.6618 114.62 60.107C114.62 59.5522 114.17 59.1024 113.615 59.1024V61.1116ZM119.183 59.1024C118.628 59.1024 118.178 59.5522 118.178 60.107C118.178 60.6618 118.628 61.1116 119.183 61.1116V59.1024ZM124.75 61.1116C125.305 61.1116 125.755 60.6618 125.755 60.107C125.755 59.5522 125.305 59.1024 124.75 59.1024V61.1116ZM130.318 59.1024C129.763 59.1024 129.313 59.5522 129.313 60.107C129.313 60.6618 129.763 61.1116 130.318 61.1116V59.1024ZM135.885 61.1116C136.44 61.1116 136.89 60.6618 136.89 60.107C136.89 59.5522 136.44 59.1024 135.885 59.1024V61.1116ZM141.453 59.1024C140.898 59.1024 140.448 59.5522 140.448 60.107C140.448 60.6618 140.898 61.1116 141.453 61.1116V59.1024ZM147.021 61.1116C147.575 61.1116 148.025 60.6618 148.025 60.107C148.025 59.5522 147.575 59.1024 147.021 59.1024V61.1116ZM152.588 59.1024C152.033 59.1024 151.584 59.5522 151.584 60.107C151.584 60.6618 152.033 61.1116 152.588 61.1116V59.1024ZM158.156 61.1116C158.711 61.1116 159.16 60.6618 159.16 60.107C159.16 59.5522 158.711 59.1024 158.156 59.1024V61.1116ZM163.723 59.1024C163.168 59.1024 162.719 59.5522 162.719 60.107C162.719 60.6618 163.168 61.1116 163.723 61.1116V59.1024ZM169.291 61.1116C169.846 61.1116 170.295 60.6618 170.295 60.107C170.295 59.5522 169.846 59.1024 169.291 59.1024V61.1116ZM174.858 59.1024C174.304 59.1024 173.854 59.5522 173.854 60.107C173.854 60.6618 174.304 61.1116 174.858 61.1116V59.1024ZM4.88615 6.2447L7.68497 7.73285L8.6282 5.95887L5.82939 4.47072L4.88615 6.2447ZM13.2826 10.7091L18.8802 13.6854L19.8235 11.9115L14.2258 8.93517L13.2826 10.7091ZM24.4779 16.6618L30.0755 19.6381L31.0187 17.8641L25.4211 14.8878L24.4779 16.6618ZM35.6731 22.6144L41.2708 25.5907L42.214 23.8167L36.6164 20.8404L35.6731 22.6144ZM46.8684 28.567L52.466 31.5433L53.4092 29.7693L47.8116 26.793L46.8684 28.567ZM58.0636 34.5196L63.6613 37.4959L64.6045 35.7219L59.0069 32.7456L58.0636 34.5196ZM69.2589 40.4722L74.8565 43.4485L75.7998 41.6745L70.2021 38.6982L69.2589 40.4722ZM80.4542 46.4248L86.0518 49.4011L86.995 47.6271L81.3974 44.6508L80.4542 46.4248ZM91.6494 52.3774L97.2471 55.3537L98.1903 53.5797L92.5927 50.6034L91.6494 52.3774ZM102.845 58.33L105.644 59.8181L106.587 58.0441L103.788 56.556L102.845 58.33ZM105.644 59.8181C107.241 60.6674 109.022 61.1116 110.831 61.1116V59.1024C109.351 59.1024 107.894 58.739 106.587 58.0441L105.644 59.8181ZM110.831 61.1116H113.615V59.1024H110.831V61.1116ZM119.183 61.1116H124.75V59.1024H119.183V61.1116ZM130.318 61.1116H135.885V59.1024H130.318V61.1116ZM141.453 61.1116H147.021V59.1024H141.453V61.1116ZM152.588 61.1116H158.156V59.1024H152.588V61.1116ZM163.723 61.1116H169.291V59.1024H163.723V61.1116ZM174.858 61.1116H177.642V59.1024H174.858V61.1116Z" fill="#477AA3"/>
</svg>
