<svg width="28" height="28" viewBox="0 0 28 28" fill="none" xmlns="http://www.w3.org/2000/svg">
<path d="M16.3334 15.1667C15.3611 15.1667 14.5347 14.8264 13.8542 14.1459C13.1736 13.4653 12.8334 12.6389 12.8334 11.6667C12.8334 10.6945 13.1736 9.86808 13.8542 9.18752C14.5347 8.50696 15.3611 8.16669 16.3334 8.16669C17.3056 8.16669 18.132 8.50696 18.8125 9.18752C19.4931 9.86808 19.8334 10.6945 19.8334 11.6667C19.8334 12.6389 19.4931 13.4653 18.8125 14.1459C18.132 14.8264 17.3056 15.1667 16.3334 15.1667ZM8.16669 18.6667C7.52502 18.6667 6.97571 18.4382 6.51877 17.9813C6.06183 17.5243 5.83335 16.975 5.83335 16.3334V7.00002C5.83335 6.35835 6.06183 5.80905 6.51877 5.3521C6.97571 4.89516 7.52502 4.66669 8.16669 4.66669H24.5C25.1417 4.66669 25.691 4.89516 26.1479 5.3521C26.6049 5.80905 26.8334 6.35835 26.8334 7.00002V16.3334C26.8334 16.975 26.6049 17.5243 26.1479 17.9813C25.691 18.4382 25.1417 18.6667 24.5 18.6667H8.16669ZM10.5 16.3334H22.1667C22.1667 15.6917 22.3952 15.1424 22.8521 14.6854C23.309 14.2285 23.8584 14 24.5 14V9.33335C23.8584 9.33335 23.309 9.10488 22.8521 8.64794C22.3952 8.19099 22.1667 7.64169 22.1667 7.00002H10.5C10.5 7.64169 10.2715 8.19099 9.8146 8.64794C9.35766 9.10488 8.80835 9.33335 8.16669 9.33335V14C8.80835 14 9.35766 14.2285 9.8146 14.6854C10.2715 15.1424 10.5 15.6917 10.5 16.3334ZM22.1667 23.3334H3.50002C2.85835 23.3334 2.30905 23.1049 1.8521 22.6479C1.39516 22.191 1.16669 21.6417 1.16669 21V9.33335C1.16669 9.0028 1.27849 8.72571 1.5021 8.5021C1.72571 8.27849 2.0028 8.16669 2.33335 8.16669C2.66391 8.16669 2.94099 8.27849 3.1646 8.5021C3.38821 8.72571 3.50002 9.0028 3.50002 9.33335V21H22.1667C22.4972 21 22.7743 21.1118 22.9979 21.3354C23.2215 21.559 23.3334 21.8361 23.3334 22.1667C23.3334 22.4972 23.2215 22.7743 22.9979 22.9979C22.7743 23.2215 22.4972 23.3334 22.1667 23.3334Z" fill="#FF8463"/>
</svg>
