<svg width="36" height="36" viewBox="0 0 36 36" fill="none" xmlns="http://www.w3.org/2000/svg">
<path d="M14.7 32.625C11.275 31.85 8.46875 30.1 6.28125 27.375C4.09375 24.65 3 21.525 3 18C3 14.475 4.09375 11.35 6.28125 8.625C8.46875 5.9 11.275 4.15 14.7 3.375C15.175 3.25 15.5938 3.3375 15.9563 3.6375C16.3188 3.9375 16.5 4.3375 16.5 4.8375C16.5 5.1875 16.4 5.5 16.2 5.775C16 6.05 15.725 6.225 15.375 6.3C12.625 6.925 10.375 8.325 8.625 10.5C6.875 12.675 6 15.175 6 18C6 20.825 6.875 23.325 8.625 25.5C10.375 27.675 12.625 29.075 15.375 29.7C15.725 29.775 16 29.95 16.2 30.225C16.4 30.5 16.5 30.8125 16.5 31.1625C16.5 31.6625 16.3188 32.0625 15.9563 32.3625C15.5938 32.6625 15.175 32.75 14.7 32.625ZM21.3 32.625C20.825 32.75 20.4062 32.6625 20.0438 32.3625C19.6813 32.0625 19.5 31.6625 19.5 31.1625C19.5 30.8125 19.6 30.5 19.8 30.225C20 29.95 20.275 29.775 20.625 29.7C21.3 29.55 21.9563 29.3438 22.5938 29.0813C23.2313 28.8188 23.8375 28.5 24.4125 28.125C24.6875 27.925 24.9938 27.85 25.3313 27.9C25.6688 27.95 25.9625 28.1 26.2125 28.35C26.5625 28.7 26.7125 29.1063 26.6625 29.5688C26.6125 30.0313 26.3875 30.4 25.9875 30.675C25.2625 31.125 24.5063 31.5125 23.7188 31.8375C22.9313 32.1625 22.125 32.425 21.3 32.625ZM28.35 26.25C28.1 26 27.95 25.7063 27.9 25.3688C27.85 25.0313 27.925 24.725 28.125 24.45C28.5 23.875 28.8188 23.2625 29.0813 22.6125C29.3438 21.9625 29.55 21.3 29.7 20.625C29.775 20.275 29.95 20.0063 30.225 19.8188C30.5 19.6313 30.8125 19.5375 31.1625 19.5375C31.6625 19.5375 32.0625 19.7188 32.3625 20.0813C32.6625 20.4438 32.75 20.8625 32.625 21.3375C32.425 22.1625 32.1625 22.9688 31.8375 23.7563C31.5125 24.5438 31.125 25.3 30.675 26.025C30.4 26.425 30.0313 26.65 29.5688 26.7C29.1063 26.75 28.7 26.6 28.35 26.25ZM31.1625 16.5C30.8125 16.5 30.5 16.4 30.225 16.2C29.95 16 29.775 15.725 29.7 15.375C29.55 14.7 29.3438 14.0438 29.0813 13.4063C28.8188 12.7688 28.5 12.1625 28.125 11.5875C27.925 11.2875 27.85 10.9688 27.9 10.6313C27.95 10.2938 28.1 10 28.35 9.75C28.7 9.4 29.1063 9.25 29.5688 9.3C30.0313 9.35 30.4 9.5875 30.675 10.0125C31.125 10.7375 31.5125 11.4938 31.8375 12.2813C32.1625 13.0688 32.425 13.875 32.625 14.7C32.75 15.175 32.6625 15.5938 32.3625 15.9563C32.0625 16.3188 31.6625 16.5 31.1625 16.5ZM24.4125 7.875C23.8375 7.5 23.2313 7.18125 22.5938 6.91875C21.9563 6.65625 21.3 6.45 20.625 6.3C20.275 6.225 20 6.05 19.8 5.775C19.6 5.5 19.5 5.1875 19.5 4.8375C19.5 4.3375 19.6813 3.9375 20.0438 3.6375C20.4062 3.3375 20.825 3.25 21.3 3.375C22.125 3.575 22.9313 3.8375 23.7188 4.1625C24.5063 4.4875 25.2625 4.875 25.9875 5.325C26.4125 5.6 26.65 5.96875 26.7 6.43125C26.75 6.89375 26.6 7.3 26.25 7.65C26 7.9 25.7063 8.05 25.3688 8.1C25.0312 8.15 24.7125 8.075 24.4125 7.875ZM19.4625 19.6875L22.2375 16.9125C22.5375 16.6125 22.9 16.4625 23.325 16.4625C23.75 16.4625 24.1125 16.6125 24.4125 16.9125C24.7125 17.2125 24.8563 17.575 24.8438 18C24.8313 18.425 24.675 18.7875 24.375 19.0875L19.0125 24.45C18.7375 24.725 18.3875 24.8625 17.9625 24.8625C17.5375 24.8625 17.1875 24.725 16.9125 24.45L11.475 18.975C11.175 18.675 11.0312 18.3188 11.0438 17.9063C11.0563 17.4938 11.2125 17.1375 11.5125 16.8375C11.8125 16.5375 12.1688 16.3875 12.5813 16.3875C12.9938 16.3875 13.35 16.5375 13.65 16.8375L16.4625 19.6875V12C16.4625 11.575 16.6063 11.2188 16.8938 10.9313C17.1813 10.6438 17.5375 10.5 17.9625 10.5C18.3875 10.5 18.7438 10.6438 19.0312 10.9313C19.3188 11.2188 19.4625 11.575 19.4625 12V19.6875Z" fill="white"/>
</svg>
