<svg width="28" height="28" viewBox="0 0 28 28" fill="none" xmlns="http://www.w3.org/2000/svg">
<path d="M12.3083 21.2333L18.3458 14H13.6792L14.525 7.37915L9.12917 15.1666H13.1833L12.3083 21.2333ZM10.5 17.5H6.88334C6.41667 17.5 6.07153 17.291 5.84792 16.8729C5.62431 16.4548 5.64862 16.0514 5.92084 15.6625L14.6417 3.12081C14.8361 2.84859 15.0889 2.65901 15.4 2.55206C15.7111 2.44512 16.0319 2.44998 16.3625 2.56665C16.6931 2.68331 16.9361 2.88748 17.0917 3.17915C17.2472 3.47081 17.3056 3.78192 17.2667 4.11248L16.3333 11.6666H20.8542C21.3597 11.6666 21.7146 11.8903 21.9188 12.3375C22.1229 12.7847 22.0597 13.2028 21.7292 13.5916L12.1333 25.0833C11.9194 25.3361 11.6569 25.5014 11.3458 25.5791C11.0347 25.6569 10.7333 25.6278 10.4417 25.4916C10.15 25.3555 9.92153 25.1465 9.75625 24.8646C9.59098 24.5826 9.52778 24.2764 9.56667 23.9458L10.5 17.5Z" fill="#FF8463"/>
</svg>
