<svg width="36" height="36" viewBox="0 0 36 36" fill="none" xmlns="http://www.w3.org/2000/svg">
<path d="M29.2875 18C29.2875 18.55 29.2187 19.0813 29.0812 19.5938C28.9437 20.1063 28.7375 20.6 28.4625 21.075C28.2625 21.425 27.95 21.6063 27.525 21.6188C27.1 21.6313 26.7375 21.4875 26.4375 21.1875C26.1375 20.8875 25.9812 20.5312 25.9687 20.1188C25.9562 19.7063 26.0125 19.2875 26.1375 18.8625C26.1875 18.7375 26.225 18.6 26.25 18.45C26.275 18.3 26.2875 18.15 26.2875 18C26.2875 17.85 26.275 17.7 26.25 17.55C26.225 17.4 26.1875 17.2625 26.1375 17.1375C26.0125 16.7125 25.9562 16.2938 25.9687 15.8813C25.9812 15.4688 26.1375 15.1125 26.4375 14.8125C26.7375 14.5125 27.0937 14.3625 27.5062 14.3625C27.9187 14.3625 28.225 14.5375 28.425 14.8875C28.7 15.3625 28.9125 15.8563 29.0625 16.3688C29.2125 16.8813 29.2875 17.425 29.2875 18ZM34.5375 18C34.5375 19.25 34.3375 20.4563 33.9375 21.6188C33.5375 22.7812 32.9625 23.85 32.2125 24.825C31.9625 25.15 31.6312 25.3188 31.2187 25.3313C30.8062 25.3438 30.45 25.2 30.15 24.9C29.875 24.625 29.7312 24.275 29.7187 23.85C29.7062 23.425 29.825 23.0375 30.075 22.6875C30.55 22.0125 30.9125 21.275 31.1625 20.475C31.4125 19.675 31.5375 18.85 31.5375 18C31.5375 17.15 31.4125 16.325 31.1625 15.525C30.9125 14.725 30.55 13.9875 30.075 13.3125C29.825 12.9625 29.7062 12.575 29.7187 12.15C29.7312 11.725 29.875 11.375 30.15 11.1C30.45 10.8 30.8062 10.6562 31.2187 10.6688C31.6312 10.6813 31.9625 10.85 32.2125 11.175C32.9625 12.15 33.5375 13.2188 33.9375 14.3813C34.3375 15.5438 34.5375 16.75 34.5375 18ZM10.5 34.5C9.675 34.5 8.96875 34.2063 8.38125 33.6188C7.79375 33.0313 7.5 32.325 7.5 31.5V4.5C7.5 3.675 7.79375 2.96875 8.38125 2.38125C8.96875 1.79375 9.675 1.5 10.5 1.5H25.5C26.325 1.5 27.0312 1.79375 27.6187 2.38125C28.2062 2.96875 28.5 3.675 28.5 4.5V10.5H25.5V9H10.5V27H25.5V25.5H28.5V31.5C28.5 32.325 28.2062 33.0313 27.6187 33.6188C27.0312 34.2063 26.325 34.5 25.5 34.5H10.5ZM10.5 30V31.5H25.5V30H10.5ZM10.5 6H25.5V4.5H10.5V6Z" fill="white"/>
</svg>
