<svg width="36" height="36" viewBox="0 0 36 36" fill="none" xmlns="http://www.w3.org/2000/svg">
<path d="M16.3875 22.6875L14.2875 20.5875C14.1375 20.4375 13.975 20.325 13.8 20.25C13.625 20.175 13.4438 20.1375 13.2563 20.1375C13.0688 20.1375 12.8813 20.175 12.6938 20.25C12.5063 20.325 12.3375 20.4375 12.1875 20.5875C11.8875 20.8875 11.7375 21.2438 11.7375 21.6562C11.7375 22.0688 11.8875 22.425 12.1875 22.725L15.375 25.95C15.525 26.1 15.6875 26.2063 15.8625 26.2688C16.0375 26.3313 16.225 26.3625 16.425 26.3625C16.625 26.3625 16.8125 26.3313 16.9875 26.2688C17.1625 26.2063 17.325 26.1 17.475 25.95L23.8125 19.6125C24.1125 19.3125 24.2625 18.95 24.2625 18.525C24.2625 18.1 24.1125 17.7375 23.8125 17.4375C23.5125 17.1375 23.15 16.9875 22.725 16.9875C22.3 16.9875 21.9375 17.1375 21.6375 17.4375L16.3875 22.6875ZM9 33C8.175 33 7.46875 32.7063 6.88125 32.1188C6.29375 31.5313 6 30.825 6 30V6C6 5.175 6.29375 4.46875 6.88125 3.88125C7.46875 3.29375 8.175 3 9 3H19.7625C20.1625 3 20.5438 3.075 20.9063 3.225C21.2688 3.375 21.5875 3.5875 21.8625 3.8625L29.1375 11.1375C29.4125 11.4125 29.625 11.7313 29.775 12.0938C29.925 12.4563 30 12.8375 30 13.2375V30C30 30.825 29.7063 31.5313 29.1188 32.1188C28.5312 32.7063 27.825 33 27 33H9ZM19.5 12V6H9V30H27V13.5H21C20.575 13.5 20.2188 13.3563 19.9313 13.0688C19.6438 12.7812 19.5 12.425 19.5 12Z" fill="white"/>
</svg>
