<svg width="28" height="28" viewBox="0 0 28 28" fill="none" xmlns="http://www.w3.org/2000/svg">
<path d="M11.6667 3.50002C11.3361 3.50002 11.059 3.38821 10.8354 3.1646C10.6118 2.94099 10.5 2.66391 10.5 2.33335C10.5 2.0028 10.6118 1.72571 10.8354 1.5021C11.059 1.27849 11.3361 1.16669 11.6667 1.16669H16.3333C16.6639 1.16669 16.941 1.27849 17.1646 1.5021C17.3882 1.72571 17.5 2.0028 17.5 2.33335C17.5 2.66391 17.3882 2.94099 17.1646 3.1646C16.941 3.38821 16.6639 3.50002 16.3333 3.50002H11.6667ZM14 16.3334C14.3306 16.3334 14.6076 16.2215 14.8313 15.9979C15.0549 15.7743 15.1667 15.4972 15.1667 15.1667V10.5C15.1667 10.1695 15.0549 9.89238 14.8313 9.66877C14.6076 9.44516 14.3306 9.33335 14 9.33335C13.6694 9.33335 13.3924 9.44516 13.1687 9.66877C12.9451 9.89238 12.8333 10.1695 12.8333 10.5V15.1667C12.8333 15.4972 12.9451 15.7743 13.1687 15.9979C13.3924 16.2215 13.6694 16.3334 14 16.3334ZM14 25.6667C12.5611 25.6667 11.2049 25.3896 9.93125 24.8354C8.65764 24.2813 7.54444 23.5278 6.59167 22.575C5.63889 21.6222 4.88542 20.509 4.33125 19.2354C3.77708 17.9618 3.5 16.6056 3.5 15.1667C3.5 13.7278 3.77708 12.3715 4.33125 11.0979C4.88542 9.82433 5.63889 8.71113 6.59167 7.75835C7.54444 6.80558 8.65764 6.0521 9.93125 5.49794C11.2049 4.94377 12.5611 4.66669 14 4.66669C15.2056 4.66669 16.3625 4.86113 17.4708 5.25002C18.5792 5.63891 19.6194 6.2028 20.5917 6.94169L21.4083 6.12502C21.6222 5.91113 21.8944 5.80419 22.225 5.80419C22.5556 5.80419 22.8278 5.91113 23.0417 6.12502C23.2556 6.33891 23.3625 6.61113 23.3625 6.94169C23.3625 7.27224 23.2556 7.54446 23.0417 7.75835L22.225 8.57502C22.9639 9.54724 23.5278 10.5875 23.9167 11.6959C24.3056 12.8042 24.5 13.9611 24.5 15.1667C24.5 16.6056 24.2229 17.9618 23.6688 19.2354C23.1146 20.509 22.3611 21.6222 21.4083 22.575C20.4556 23.5278 19.3424 24.2813 18.0688 24.8354C16.7951 25.3896 15.4389 25.6667 14 25.6667ZM14 23.3334C16.2556 23.3334 18.1806 22.5361 19.775 20.9417C21.3694 19.3472 22.1667 17.4222 22.1667 15.1667C22.1667 12.9111 21.3694 10.9861 19.775 9.39169C18.1806 7.79724 16.2556 7.00002 14 7.00002C11.7444 7.00002 9.81944 7.79724 8.225 9.39169C6.63056 10.9861 5.83333 12.9111 5.83333 15.1667C5.83333 17.4222 6.63056 19.3472 8.225 20.9417C9.81944 22.5361 11.7444 23.3334 14 23.3334Z" fill="#FF8463"/>
</svg>
