<svg width="18" height="18" viewBox="0 0 18 18" fill="none" xmlns="http://www.w3.org/2000/svg">
<path d="M6.63751 13.3688L9.00001 11.9438L11.3625 13.3875L10.7438 10.6875L12.825 8.88752L10.0875 8.64377L9.00001 6.09377L7.91251 8.62502L5.17501 8.86877L7.25626 10.6875L6.63751 13.3688ZM9.00001 13.7063L5.88751 15.5813C5.75001 15.6688 5.60626 15.7063 5.45626 15.6938C5.30626 15.6813 5.17501 15.6313 5.06251 15.5438C4.95001 15.4563 4.86251 15.3469 4.80001 15.2156C4.73751 15.0844 4.72501 14.9375 4.76251 14.775L5.58751 11.2313L2.83126 8.85002C2.70626 8.73752 2.62814 8.6094 2.59689 8.46565C2.56564 8.3219 2.57501 8.18127 2.62501 8.04377C2.67501 7.90627 2.75001 7.79377 2.85001 7.70627C2.95001 7.61877 3.08751 7.56252 3.26251 7.53752L6.90001 7.21877L8.30626 3.88127C8.36876 3.73127 8.46564 3.61877 8.59689 3.54377C8.72814 3.46877 8.86251 3.43127 9.00001 3.43127C9.13751 3.43127 9.27189 3.46877 9.40314 3.54377C9.53439 3.61877 9.63126 3.73127 9.69376 3.88127L11.1 7.21877L14.7375 7.53752C14.9125 7.56252 15.05 7.61877 15.15 7.70627C15.25 7.79377 15.325 7.90627 15.375 8.04377C15.425 8.18127 15.4344 8.3219 15.4031 8.46565C15.3719 8.6094 15.2938 8.73752 15.1688 8.85002L12.4125 11.2313L13.2375 14.775C13.275 14.9375 13.2625 15.0844 13.2 15.2156C13.1375 15.3469 13.05 15.4563 12.9375 15.5438C12.825 15.6313 12.6938 15.6813 12.5438 15.6938C12.3938 15.7063 12.25 15.6688 12.1125 15.5813L9.00001 13.7063Z" fill="#01A12E"/>
<path d="M6.63751 13.3688L9.00001 11.9438L11.3625 13.3875L10.7438 10.6875L12.825 8.88752L10.0875 8.64377L9.00001 6.09377L7.91251 8.62502L5.17501 8.86877L7.25626 10.6875L6.63751 13.3688Z" fill="#01A12E"/>
</svg>
